<svg width="1150" height="351" viewBox="0 0 1150 351" fill="none" xmlns="http://www.w3.org/2000/svg">
<circle cx="175.195" cy="175.195" r="175.195" fill="#7BBEDE"/>
<path d="M500.334 49.2738C518.646 49.2738 532.624 52.5247 542.268 59.0266C552.034 65.5284 556.917 75.4585 556.917 88.8168C556.917 105.485 548.432 116.775 531.464 122.685C533.783 125.404 536.408 128.714 539.338 132.616C542.268 136.517 545.258 140.772 548.31 145.383C551.362 149.875 554.292 154.544 557.1 159.391C559.908 164.12 562.41 168.789 564.607 173.4H538.788C536.469 169.144 533.966 164.888 531.281 160.632C528.595 156.259 525.848 152.062 523.041 148.043C520.355 143.905 517.669 140.063 514.984 136.517C512.298 132.852 509.795 129.601 507.476 126.764C505.767 126.882 504.302 126.941 503.081 126.941C501.86 126.941 500.701 126.941 499.602 126.941H488.432V173.4H465.36V52.2883C470.975 51.1061 476.957 50.3377 483.305 49.9831C489.653 49.5102 495.329 49.2738 500.334 49.2738ZM501.983 68.602C497.099 68.602 492.583 68.7793 488.432 69.134V108.854H498.503C504.119 108.854 509.063 108.559 513.336 107.968C517.608 107.377 521.148 106.313 523.956 104.776C526.886 103.239 529.083 101.17 530.548 98.5695C532.013 95.9688 532.746 92.6588 532.746 88.6395C532.746 84.8566 532.013 81.6648 530.548 79.064C529.083 76.4633 526.947 74.3945 524.139 72.8577C521.454 71.3209 518.219 70.257 514.434 69.6659C510.65 68.9566 506.499 68.602 501.983 68.602Z" fill="#7BBEDE"/>
<path d="M659.945 170.563C655.673 171.627 650.118 172.69 643.282 173.754C636.446 174.937 628.938 175.528 620.759 175.528C613.068 175.528 606.598 174.464 601.349 172.336C596.222 170.208 592.071 167.253 588.897 163.47C585.845 159.687 583.648 155.195 582.305 149.993C580.962 144.673 580.291 138.881 580.291 132.616V80.6599H602.448V129.246C602.448 139.176 603.913 146.269 606.842 150.525C609.894 154.781 615.144 156.909 622.59 156.909C625.276 156.909 628.084 156.791 631.013 156.554C634.065 156.318 636.324 156.022 637.789 155.667V80.6599H659.945V170.563Z" fill="#7BBEDE"/>
<path d="M721.839 158.327C728.676 158.327 733.864 157.973 737.404 157.263V133.502C736.183 133.147 734.413 132.793 732.094 132.438C729.774 132.084 727.211 131.906 724.403 131.906C721.961 131.906 719.459 132.084 716.895 132.438C714.454 132.793 712.195 133.443 710.12 134.389C708.167 135.334 706.58 136.694 705.359 138.467C704.138 140.122 703.528 142.25 703.528 144.851C703.528 149.934 705.176 153.48 708.472 155.49C711.768 157.382 716.224 158.327 721.839 158.327ZM720.008 78.3547C727.333 78.3547 733.498 79.2414 738.503 81.0146C743.508 82.7878 747.475 85.2703 750.405 88.4621C753.457 91.6539 755.593 95.555 756.814 100.165C758.157 104.658 758.828 109.623 758.828 115.061V171.272C755.41 171.981 750.222 172.809 743.264 173.754C736.427 174.818 728.676 175.35 720.008 175.35C714.271 175.35 709.021 174.818 704.26 173.754C699.499 172.69 695.41 170.976 691.992 168.612C688.696 166.248 686.071 163.174 684.118 159.391C682.287 155.608 681.371 150.939 681.371 145.383C681.371 140.063 682.409 135.571 684.484 131.906C686.681 128.242 689.611 125.286 693.274 123.04C696.936 120.676 701.147 119.021 705.908 118.075C710.791 117.011 715.858 116.479 721.107 116.479C723.548 116.479 726.112 116.656 728.798 117.011C731.483 117.248 734.352 117.72 737.404 118.43V114.883C737.404 112.401 737.099 110.036 736.488 107.79C735.878 105.544 734.779 103.594 733.192 101.939C731.728 100.165 729.713 98.806 727.15 97.8602C724.708 96.9145 721.595 96.4417 717.811 96.4417C712.684 96.4417 707.984 96.7963 703.711 97.5056C699.438 98.2149 695.959 99.0424 693.274 99.9881L690.527 82.6105C693.335 81.6648 697.424 80.719 702.796 79.7733C708.167 78.8276 713.904 78.3547 720.008 78.3547Z" fill="#7BBEDE"/>
<path d="M785.962 83.6744C790.235 82.4923 795.789 81.3692 802.625 80.3053C809.462 79.2414 817.03 78.7094 825.332 78.7094C833.144 78.7094 839.676 79.7733 844.925 81.9012C850.174 83.9109 854.325 86.8071 857.377 90.59C860.551 94.2547 862.748 98.7469 863.969 104.067C865.311 109.268 865.983 115.001 865.983 121.267V173.4H843.826V124.636C843.826 119.671 843.46 115.474 842.727 112.046C842.117 108.5 841.018 105.662 839.431 103.535C837.966 101.288 835.891 99.6926 833.206 98.7468C830.642 97.6829 827.468 97.151 823.684 97.151C820.876 97.151 817.946 97.3283 814.894 97.6829C811.842 98.0376 809.584 98.3331 808.119 98.5695V173.4H785.962V83.6744Z" fill="#7BBEDE"/>
<path d="M910.472 124.636C910.472 133.739 912.487 140.418 916.515 144.673C920.666 148.811 925.976 150.88 932.446 150.88C935.986 150.88 939.282 150.407 942.334 149.461C945.508 148.515 948.072 147.392 950.025 146.092V98.0376C948.438 97.6829 946.485 97.3874 944.165 97.151C941.846 96.7963 938.916 96.619 935.376 96.619C927.319 96.619 921.154 99.2197 916.881 104.421C912.609 109.504 910.472 116.243 910.472 124.636ZM972.182 164.002C972.182 178.779 968.275 189.595 960.462 196.452C952.772 203.308 940.93 206.736 924.938 206.736C919.079 206.736 913.341 206.264 907.726 205.318C902.232 204.372 897.227 203.131 892.71 201.594L896.739 183.33C900.523 184.867 904.796 186.108 909.557 187.054C914.44 187.999 919.689 188.472 925.305 188.472C934.216 188.472 940.564 186.699 944.348 183.152C948.133 179.606 950.025 174.345 950.025 167.371V163.824C947.828 164.888 944.898 165.952 941.236 167.016C937.695 168.08 933.606 168.612 928.967 168.612C922.863 168.612 917.248 167.666 912.12 165.775C907.115 163.883 902.782 161.105 899.119 157.441C895.579 153.776 892.771 149.225 890.696 143.787C888.743 138.231 887.766 131.847 887.766 124.636C887.766 117.898 888.804 111.691 890.879 106.017C893.077 100.343 896.19 95.4959 900.218 91.4766C904.369 87.4573 909.374 84.3246 915.233 82.0785C921.093 79.8324 927.746 78.7094 935.193 78.7094C942.395 78.7094 949.232 79.2414 955.702 80.3053C962.172 81.3692 967.665 82.4923 972.182 83.6744V164.002Z" fill="#7BBEDE"/>
<path d="M1085.7 173.4C1083.99 168.553 1082.22 163.765 1080.39 159.037C1078.56 154.308 1076.79 149.461 1075.08 144.496H1021.61C1019.9 149.461 1018.13 154.367 1016.3 159.214C1014.59 163.943 1012.88 168.671 1011.17 173.4H987.186C991.947 160.278 996.463 148.161 1000.74 137.049C1005.01 125.936 1009.16 115.415 1013.19 105.485C1017.34 95.555 1021.43 86.0978 1025.46 77.1135C1029.48 68.1291 1033.64 59.263 1037.91 50.5151H1059.7C1063.97 59.263 1068.12 68.1291 1072.15 77.1135C1076.18 86.0978 1080.21 95.555 1084.24 105.485C1088.39 115.415 1092.6 125.936 1096.87 137.049C1101.27 148.161 1105.84 160.278 1110.6 173.4H1085.7ZM1048.35 74.2763C1045.54 80.5417 1042.3 88.1666 1038.64 97.151C1035.1 106.135 1031.38 115.888 1027.47 126.409H1069.22C1065.31 115.888 1061.53 106.076 1057.87 96.9736C1054.21 87.8711 1051.03 80.3053 1048.35 74.2763Z" fill="#7BBEDE"/>
<path d="M1126.64 50.5151H1149.72V173.4H1126.64V50.5151Z" fill="#7BBEDE"/>
<path d="M479.241 281.377C478.202 281.377 477.063 281.353 475.826 281.303C474.639 281.254 473.426 281.18 472.189 281.081C471.001 280.982 469.814 280.858 468.626 280.709C467.438 280.561 466.35 280.363 465.36 280.116V230.234C466.35 229.987 467.438 229.789 468.626 229.64C469.814 229.492 471.001 229.368 472.189 229.269C473.426 229.17 474.639 229.096 475.826 229.046C477.014 228.997 478.127 228.972 479.166 228.972C482.136 228.972 484.907 229.195 487.48 229.64C490.103 230.086 492.354 230.853 494.235 231.941C496.165 232.981 497.674 234.366 498.763 236.098C499.851 237.83 500.396 239.958 500.396 242.482C500.396 245.302 499.728 247.628 498.392 249.459C497.056 251.241 495.274 252.577 493.047 253.468C496.066 254.358 498.466 255.769 500.247 257.699C502.029 259.629 502.92 262.35 502.92 265.864C502.92 271.01 501.014 274.895 497.204 277.518C493.443 280.091 487.455 281.377 479.241 281.377ZM472.486 256.956V275.068C473.03 275.118 473.674 275.167 474.416 275.216C475.059 275.266 475.801 275.315 476.643 275.365C477.533 275.365 478.548 275.365 479.686 275.365C481.814 275.365 483.818 275.241 485.699 274.994C487.629 274.697 489.311 274.202 490.746 273.509C492.181 272.816 493.319 271.851 494.161 270.614C495.051 269.377 495.497 267.818 495.497 265.938C495.497 264.255 495.175 262.845 494.532 261.707C493.888 260.519 492.948 259.579 491.711 258.886C490.523 258.193 489.088 257.699 487.406 257.402C485.723 257.105 483.843 256.956 481.764 256.956H472.486ZM472.486 251.166H480.057C481.839 251.166 483.521 251.043 485.105 250.795C486.688 250.548 488.049 250.103 489.187 249.459C490.375 248.816 491.29 247.975 491.934 246.935C492.627 245.896 492.973 244.585 492.973 243.001C492.973 241.517 492.627 240.28 491.934 239.29C491.241 238.251 490.276 237.434 489.039 236.84C487.851 236.197 486.441 235.727 484.808 235.43C483.175 235.133 481.443 234.985 479.612 234.985C477.781 234.985 476.346 235.009 475.307 235.059C474.267 235.108 473.327 235.183 472.486 235.282V251.166Z" fill="#595959"/>
<path d="M508.084 288.132C508.629 288.38 509.321 288.602 510.163 288.8C511.053 289.048 511.919 289.171 512.761 289.171C515.482 289.171 517.61 288.553 519.144 287.316C520.678 286.128 522.064 284.173 523.301 281.452C520.183 275.513 517.264 269.229 514.542 262.598C511.87 255.917 509.643 249.162 507.862 242.333H515.284C515.829 244.56 516.472 246.96 517.214 249.533C518.006 252.107 518.872 254.754 519.812 257.476C520.753 260.198 521.767 262.919 522.856 265.641C523.944 268.363 525.083 270.985 526.27 273.509C528.151 268.313 529.784 263.167 531.169 258.07C532.555 252.973 533.866 247.727 535.103 242.333H542.229C540.448 249.608 538.468 256.61 536.291 263.34C534.114 270.021 531.763 276.28 529.239 282.12C528.25 284.347 527.21 286.252 526.122 287.835C525.083 289.468 523.92 290.804 522.633 291.844C521.346 292.883 519.887 293.65 518.254 294.145C516.67 294.64 514.864 294.887 512.835 294.887C512.291 294.887 511.721 294.838 511.128 294.739C510.534 294.689 509.94 294.59 509.346 294.442C508.802 294.343 508.282 294.219 507.787 294.071C507.342 293.922 507.02 293.798 506.822 293.699L508.084 288.132Z" fill="#595959"/>
<path d="M730.655 270.733C729.01 272.073 727.064 273.153 725.007 273.861C722.987 274.568 720.817 274.978 718.573 274.978C713.261 274.978 708.473 272.818 704.994 269.355C701.515 265.892 699.346 261.126 699.346 255.838C699.346 250.55 701.515 245.747 704.994 242.284C708.473 238.821 713.261 236.698 718.573 236.698C720.556 236.698 722.501 236.996 724.296 237.554C726.167 238.113 727.925 239.007 729.496 240.087C729.683 240.198 729.87 240.347 730.094 240.496C730.319 240.682 730.506 240.831 730.655 240.943L727.925 244.332C727.738 244.183 727.588 244.071 727.476 243.959C727.364 243.885 727.214 243.773 727.027 243.661C725.792 242.805 724.446 242.135 723.024 241.688C721.603 241.278 720.144 241.055 718.573 241.055C714.496 241.055 710.755 242.693 708.099 245.374C705.406 248.055 703.722 251.742 703.722 255.838C703.722 259.897 705.406 263.621 708.099 266.264C710.755 268.945 714.496 270.621 718.573 270.621C720.331 270.621 721.977 270.323 723.548 269.765C725.119 269.206 726.615 268.387 727.925 267.344L730.655 270.733Z" fill="#595959"/>
<path d="M752.991 236.698C754.973 236.698 756.881 236.996 758.714 237.554C760.584 238.113 762.305 239.007 763.913 240.087C766.457 241.837 768.552 244.183 770.011 246.938C771.432 249.619 772.218 252.636 772.218 255.838C772.218 261.126 770.048 265.892 766.569 269.355C763.091 272.818 758.302 274.978 752.991 274.978C747.679 274.978 742.853 272.818 739.374 269.355C735.896 265.892 733.763 261.126 733.763 255.838C733.763 250.55 735.896 245.747 739.374 242.284C742.853 238.821 747.679 236.698 752.991 236.698ZM757.405 241.688C756.021 241.278 754.524 241.055 752.991 241.055C748.876 241.055 745.173 242.693 742.479 245.374C739.786 248.055 738.14 251.742 738.14 255.838C738.14 259.897 739.786 263.621 742.479 266.264C745.173 268.945 748.876 270.621 752.991 270.621C757.068 270.621 760.809 268.945 763.465 266.264C766.158 263.621 767.841 259.897 767.841 255.838C767.841 253.343 767.205 250.997 766.158 248.949C765.036 246.827 763.39 245.002 761.407 243.661C760.21 242.805 758.864 242.135 757.405 241.688Z" fill="#595959"/>
<path d="M779.732 270.621H788.074C792.188 270.621 795.892 268.945 798.585 266.264C801.278 263.621 802.924 259.897 802.924 255.838C802.924 253.343 802.326 250.997 801.241 248.949C800.119 246.827 798.51 245.002 796.528 243.661C795.293 242.805 793.947 242.135 792.488 241.688C791.104 241.278 789.645 241.055 788.074 241.055H779.732V270.621ZM788.074 274.978H777.562H775.355V272.781V238.858V236.698H777.562H788.074C790.056 236.698 792.001 236.996 793.797 237.554C795.667 238.113 797.425 239.007 798.997 240.087C801.54 241.837 803.672 244.183 805.094 246.938C806.515 249.619 807.301 252.636 807.301 255.838C807.301 261.126 805.169 265.892 801.69 269.355C798.211 272.818 793.385 274.978 788.074 274.978Z" fill="#595959"/>
<path d="M886.607 236.929C888.552 236.929 890.46 237.227 892.293 237.785C894.126 238.344 895.884 239.2 897.455 240.28C899.999 242.03 902.094 244.376 903.553 247.132C904.937 249.776 905.722 252.792 905.722 255.957C905.722 261.207 903.59 265.974 900.111 269.437C896.67 272.863 891.882 275.022 886.607 275.022C881.295 275.022 876.507 272.863 873.066 269.437C869.587 265.974 867.455 261.207 867.455 255.957C867.455 250.706 869.587 245.94 873.066 242.514C876.507 239.051 881.295 236.929 886.607 236.929ZM890.385 243.818C889.226 243.445 887.916 243.259 886.607 243.259C883.054 243.259 879.874 244.674 877.555 246.983C875.235 249.291 873.814 252.457 873.814 255.957C873.814 259.494 875.235 262.66 877.555 264.968C879.874 267.24 883.054 268.692 886.607 268.692C890.123 268.692 893.303 267.24 895.622 264.968C897.942 262.66 899.363 259.494 899.363 255.957C899.363 253.834 898.839 251.824 897.904 250.073C896.969 248.249 895.547 246.685 893.864 245.493C892.817 244.786 891.657 244.227 890.385 243.818Z" fill="#595959"/>
<path d="M833.64 241.055H814.824V252.971H831.957V257.327H814.824V270.621H833.64V274.978H812.655H810.448V272.781V238.858V236.698H812.655H833.64V241.055Z" fill="#595959"/>
<path d="M844.112 255.175H845.122H851.967C853.613 255.175 855.109 254.505 856.194 253.425C857.242 252.345 857.915 250.855 857.915 249.217C857.915 248.212 857.69 247.243 857.242 246.461C856.793 245.605 856.157 244.86 855.334 244.302C854.885 243.967 854.324 243.706 853.725 243.52C853.164 243.371 852.603 243.259 851.967 243.259H843.177V255.175H844.112ZM843.177 261.505V274.948H836.78V240.094V236.929H839.96H851.967C853.202 236.929 854.436 237.115 855.633 237.487C856.83 237.86 857.952 238.418 858.962 239.126C860.608 240.243 861.955 241.77 862.89 243.52C863.788 245.233 864.274 247.169 864.274 249.217C864.274 252.606 862.927 255.696 860.683 257.893C858.439 260.127 855.371 261.505 851.967 261.505H845.122H844.112H843.177Z" fill="#595959"/>
<path d="M915.256 236.929V268.618H929.957V274.948H912.076H908.897V271.783V236.929H915.256Z" fill="#595959"/>
<path d="M939.466 236.929V274.948H933.107V236.929H939.466Z" fill="#595959"/>
<path d="M942.645 236.929H970.476V243.259H959.74V274.948H953.381V243.259H942.645V236.929Z" fill="#595959"/>
<path d="M1015.03 236.929L1033.77 266.011V236.929H1040.13V274.948H1031.97L1012.59 244.86V274.948H1006.2V236.929H1015.03Z" fill="#595959"/>
<path d="M973.839 260.088H995.273V266.456H973.839V260.088Z" fill="#595959"/>
<path d="M966.054 274.97L981.091 236.951H988.012L973.011 274.97H966.054Z" fill="#595959"/>
<path d="M988.02 236.951L1003.06 274.97H996.1L981.1 236.951H988.02Z" fill="#595959"/>
<path fill-rule="evenodd" clip-rule="evenodd" d="M602.185 285.61L578.567 269.32V237.832L622.345 206.708L634.295 215.217L603.732 236.209L615.822 244.297L602.185 253.59V285.61Z" fill="#009B89"/>
<path fill-rule="evenodd" clip-rule="evenodd" d="M622.344 299.509L622.147 299.397L610.366 291.28V257.888L642.054 236.113L634.294 230.599L645.091 222.902L666.094 237.848V269.336L622.541 299.397L622.344 299.509Z" fill="#FF8B99"/>
<path fill-rule="evenodd" clip-rule="evenodd" d="M645.091 222.881L634.294 230.55L642.054 236.12L610.366 257.896L634.378 249.275C640.058 239.591 646.384 228.759 648.408 225.26L645.091 222.881Z" fill="#FF8B99"/>
<path fill-rule="evenodd" clip-rule="evenodd" d="M648.405 225.234C646.38 228.733 640.054 239.565 634.374 249.249L666.09 237.83L648.405 225.234Z" fill="#F07C90"/>
<path fill-rule="evenodd" clip-rule="evenodd" d="M634.378 249.271L610.366 257.892L620.404 264.106L624.256 266.485C624.256 266.485 629.036 258.368 634.378 249.271Z" fill="#EE7F92"/>
<path fill-rule="evenodd" clip-rule="evenodd" d="M634.375 249.272C629.033 258.369 624.253 266.486 624.253 266.486L666.091 237.853L634.375 249.272Z" fill="#D96E7C"/>
<path fill-rule="evenodd" clip-rule="evenodd" d="M624.256 266.492L620.404 264.112L610.366 257.899L616.664 280.066L624.256 266.492Z" fill="#DE7180"/>
<path fill-rule="evenodd" clip-rule="evenodd" d="M616.664 280.066L610.366 257.899V291.29L616.664 280.066Z" fill="#FF8B99"/>
<path fill-rule="evenodd" clip-rule="evenodd" d="M616.664 280.067L610.366 291.291L622.147 299.408L616.664 280.067Z" fill="#E27382"/>
<path fill-rule="evenodd" clip-rule="evenodd" d="M616.664 280.055L622.146 299.396L622.343 299.508L622.54 299.396L624.255 266.48L616.664 280.055Z" fill="#C05F6C"/>
<path fill-rule="evenodd" clip-rule="evenodd" d="M624.255 266.48L622.54 299.396L644.837 267.88L624.255 266.48Z" fill="#CB6C7D"/>
<path fill-rule="evenodd" clip-rule="evenodd" d="M644.837 267.864L622.54 299.38L666.093 269.32L644.837 267.864Z" fill="#B86475"/>
<path fill-rule="evenodd" clip-rule="evenodd" d="M624.253 266.486L644.835 267.885L666.091 237.853L624.253 266.486Z" fill="#C36876"/>
<path fill-rule="evenodd" clip-rule="evenodd" d="M666.092 237.853L644.836 267.885L666.092 269.341V237.853Z" fill="#B66170"/>
<path fill-rule="evenodd" clip-rule="evenodd" d="M590.264 261.529L578.567 237.85V269.338L590.264 261.529Z" fill="#009B89"/>
<path fill-rule="evenodd" clip-rule="evenodd" d="M590.264 261.495L578.567 269.304L602.185 285.593L590.264 261.495Z" fill="#008C7D"/>
<path fill-rule="evenodd" clip-rule="evenodd" d="M578.567 237.85L590.264 261.529L602.185 253.608L595.268 248.99L578.567 237.85Z" fill="#008C7D"/>
<path fill-rule="evenodd" clip-rule="evenodd" d="M602.19 253.605L590.268 261.526L602.19 285.625V253.605Z" fill="#007A6D"/>
<path fill-rule="evenodd" clip-rule="evenodd" d="M595.268 248.958L610.789 224.747L578.567 237.818L595.268 248.958Z" fill="#3A9389"/>
<path fill-rule="evenodd" clip-rule="evenodd" d="M610.795 224.764L595.274 248.975L602.191 253.593L615.828 244.301L603.737 236.212L634.3 215.22L610.795 224.764Z" fill="#007A6D"/>
<path fill-rule="evenodd" clip-rule="evenodd" d="M610.793 224.761L634.299 215.217L622.349 206.708L610.793 224.761Z" fill="#3A9389"/>
<path fill-rule="evenodd" clip-rule="evenodd" d="M610.789 224.761L622.345 206.708L578.567 237.832L610.789 224.761Z" fill="#37A195"/>
<path fill-rule="evenodd" clip-rule="evenodd" d="M634.294 230.585V241.416L642.054 236.099L634.294 230.585Z" fill="#9D5361"/>
<path fill-rule="evenodd" clip-rule="evenodd" d="M634.298 215.221V230.531V230.587V241.419L610.371 257.877V279.961L602.189 285.614V253.595L615.825 244.302L611.355 241.307L634.298 215.221Z" fill="#021C1A"/>
<path fill-rule="evenodd" clip-rule="evenodd" d="M634.292 215.221L615.819 244.302L603.728 236.213L634.292 215.221Z" fill="#02332C"/>
<path d="M213.339 270.887L177.412 291.454L131.851 265.159V253.704L177.672 279.999L203.967 264.639L213.339 270.887Z" fill="white"/>
<path d="M117.002 256.554L82.1165 236.507V126.382C113.878 107.898 145.64 89.6735 177.402 71.1891C209.164 89.6735 240.926 107.898 272.688 126.382V236.507L227.909 262.281L218.016 256.033L167.509 223.23L156.575 216.2V204.485L171.935 214.378L228.169 250.826L262.795 230.78V132.109L177.402 82.6442L92.0095 132.109V230.78L117.002 245.099V256.554Z" fill="white"/>
<path d="M219.325 227.125L238.069 216.19V146.418L177.409 111.272L117.01 146.418V246.65H107.117V140.691L177.409 99.8167L247.962 140.43V221.918L228.697 233.113L219.325 227.125ZM214.118 241.704L210.213 244.047L205.787 236.237L214.118 241.704Z" fill="white"/>
<path d="M156.84 234.696L205.004 265.156L199.536 273.487L156.84 246.412V234.696Z" fill="white"/>
<path d="M195.896 212.031L213.079 201.878V160.743L177.412 140.176L141.744 160.743V262.798H131.851V155.016L177.412 128.721L223.232 155.016V207.605L205.268 218.019L195.896 212.031Z" fill="white"/>
<path d="M208.125 208.122L234.159 224.784L228.692 233.115L195.889 212.027L208.125 208.122Z" fill="white"/>
</svg>
